<svg fill="none" height="auto" viewBox="0 0 473 160" xmlns="http://www.w3.org/2000/svg" xmlns:xlink="http://www.w3.org/1999/xlink"><clipPath id="a"><path d="m0 0h472.289v160h-472.289z"/></clipPath><g clip-path="url(#a)"><path d="m152.037 57.2174c-2.435-.3478-4.813-.5217-7.132-.5217-6.842 0-12.38 1.9999-16.613 6-4.233 4-6.349 10.5796-6.349 19.7391v41.9132h-16.352v-83.6523h16.004v14.6086c1.508-3.2463 3.276-5.884 5.306-7.913 2.029-2.029 4.146-3.6522 6.349-4.8696s4.465-2.0579 6.784-2.5217c2.32-.4638 4.523-.6957 6.611-.6957 1.159 0 2.232.058 3.218.174.985.1159 1.71.2318 2.174.3478zm15.656 44.6956c0-3.7101.638-7.0434 1.914-10 1.275-2.9565 3.044-5.4782 5.305-7.5652 2.262-2.0869 4.958-3.7681 8.089-5.0434 3.131-1.2754 6.495-2.2029 10.09-2.7827l22.614-3.3043c2.551-.3478 4.262-1.1014 5.132-2.2609.869-1.1594 1.304-2.4927 1.304-4 0-4.058-1.42-7.5652-4.262-10.5217-2.841-2.9566-7.451-4.4348-13.829-4.4348-5.799 0-10.264 1.5942-13.395 4.7826s-4.986 7.2174-5.566 12.087l-15.656-3.6522c.464-3.9421 1.652-7.5942 3.566-10.9565 1.913-3.3624 4.378-6.2319 7.393-8.6087s6.523-4.2319 10.524-5.5652c4.001-1.3334 8.263-2 12.786-2 6.262 0 11.597.8405 16.004 2.5217s8.002 3.913 10.785 6.6957c2.783 2.7826 4.813 6.0289 6.089 9.7391 1.275 3.7101 1.913 7.5942 1.913 11.6521v41.9134c0 3.71.116 6.666.348 8.869s.464 3.826.696 4.87h-16.004c-.232-1.044-.435-2.435-.609-4.174s-.261-4.116-.261-7.131c-.928 1.508-2.145 3.073-3.653 4.696s-3.363 3.131-5.567 4.522c-2.203 1.391-4.783 2.522-7.741 3.391-2.957.87-6.291 1.305-10.002 1.305-4.291 0-8.147-.696-11.568-2.087-3.421-1.392-6.349-3.218-8.785-5.479-2.435-2.261-4.32-4.898-5.653-7.913-1.334-3.014-2.001-6.203-2.001-9.565zm30.268 11.304c3.364 0 6.524-.434 9.481-1.304s5.509-2.261 7.654-4.174c2.146-1.913 3.856-4.464 5.132-7.652 1.275-3.1885 1.913-7.0435 1.913-11.5653v-3.826l-25.571 3.826c-3.479.5797-6.379 1.8841-8.698 3.9131s-3.479 4.8985-3.479 8.6082c0 3.131 1.218 5.942 3.653 8.435s5.74 3.739 9.915 3.739zm69.409-72.5213h16.351v93.3913c0 7.652-2.029 13.884-6.088 18.696-4.059 4.811-9.741 7.217-17.048 7.217-3.131 0-5.392-.145-6.784-.435s-2.377-.551-2.957-.782v-13.74c.464.116 1.131.232 2 .348.87.116 1.943.174 3.219.174 4.29 0 7.248-1.072 8.871-3.217 1.624-2.145 2.436-5.131 2.436-8.957zm43.141-.6957h15.656v52.169c0 11.048 8.956 20.005 20.005 20.005 11.048 0 20.004-8.957 20.004-20.005v-52.169h15.656v52.1652c0 19.6948-15.966 35.6608-35.66 35.6608-19.695 0-35.661-15.966-35.661-35.6608zm90.456 0h15.657v52.169c0 11.048 8.956 20.005 20.004 20.005 11.049 0 20.005-8.957 20.005-20.005v-52.169h15.656v52.1652c0 19.6948-15.966 35.6608-35.661 35.6608s-35.661-15.966-35.661-35.6608zm-320.9474 50c0 19.45-15.7713 35.217-35.2261 35.217h-44.7935v-15.652h44.7935c10.8082 0 19.5701-8.759 19.5701-19.565 0-10.8056-8.7619-19.5652-19.5701-19.5652h-3.479-41.3145v-15.6522h41.3145c10.8082 0 19.57-8.7596 19.57-19.5652s-8.7618-19.5652-19.57-19.5652h-41.3145v-15.6522h41.3145c19.4548 0 35.2259 15.7674 35.2259 35.2174 0 10.2915-4.4155 19.552-11.4559 25.9911 9.0347 6.3758 14.9351 16.8948 14.9351 28.7915z" fill="#fff"/><path clip-rule="evenodd" d="m346.25 103.5c6.765 0 12.25-5.4845 12.25-12.25s-5.485-12.25-12.25-12.25-12.25 5.4845-12.25 12.25 5.485 12.25 12.25 12.25zm90.5 0c6.765 0 12.25-5.4845 12.25-12.25s-5.485-12.25-12.25-12.25-12.25 5.4845-12.25 12.25 5.485 12.25 12.25 12.25z" fill="#ff6000" fill-rule="evenodd"/></g></svg>